<svg xmlns="http://www.w3.org/2000/svg" version="1.2" baseProfile="tiny" viewBox="0 0 455.1 87.9">
  <path d="M24.5 84.8c-.2.4-.2.6-.2 1l-.9-.4c.5-.5.5-.6.7-1.1l1.2-2.9-1.1.3-.2-.2c.2-.1 1.9-.7 2.1-.8l-1.6 4.1zm24.9-1.9l-.9.1c-.9.1-1.2.3-1.5.5v-.9l3.1-.3-1.1 2.5c1.3.1 1.4 1.2 1.5 1.3 0 .4-.2 1.6-1.8 1.8-.8.1-1.1 0-1.4-.1l.4-.9c.1.2.3.7 1.1.7.8-.1 1.2-.7 1.1-1.3 0-.4-.3-.7-.6-.8-.4-.1-.8-.1-1.1-.1l1.2-2.5zm-11.6 2.2L37 85l1.4-2.5-2.8-.3H35l-.1.8c.4-.3.5-.4 1.8-.2l.9.1-1.1 2-.8-.1h-.5l-.1.3 1.1.1-.5.9c-.3.6-.6 1.1-1 1.4l1.1.1v-.3c0-.3.2-.7.6-1.5l.3-.5h1l.1-.2zm24.1-1.6l-.8.2.5-2.8-2.7.6c-.2 0-.3.1-.4.1h-.2l.1.9c.3-.4.4-.5 1.6-.8l.8-.2-.4 2.3-.8.2c-.1 0-.2 0-.3.1h-.2v.3l1.1-.2-.2 1c-.1.6-.3 1.2-.5 1.6l1.1-.2s-.1-.2-.1-.3c-.1-.3 0-.7.1-1.7l.4-.6.5-.1c.1 0 .2 0 .3-.1h.2l-.1-.3z"/>
  <path fill="#C4CEE1" d="M17.2 36.7h-6c0 10.2 6.5 21.1 20.4 25.3.8-1.7 1.7-3.5 2.5-5.4C21 53 17.2 43 17.2 36.7zM45.3 58c-3 0-5.8-.3-8.2-.7-1 2.3-1.8 4.3-2.4 5.6 3.2.7 6.7 1.1 10.6 1.1 1.8 0 3.6-.2 5.3-.5-.9-1.8-1.8-3.7-2.5-5.7-.9.1-1.9.2-2.8.2z"/>
  <g fill="#004077">
    <path d="M52.5 66.9c-2.2.5-4.4.8-6.8.8-4.4.1-8.7-.4-12.9-1.5-1.1 2.1-2.3 4-3.4 5.8 5.3 1.5 10.8 2.3 16.4 2.2 3.7-.1 7.3-.6 10.6-1.6-.4-.5-.8-1-1.2-1.6-.9-1.2-1.8-2.6-2.7-4.1zM14.4 56.5c-5.2-5-7.8-11.2-7.9-18.3C6.4 18.6 25.4 6.7 43.8 6.5 61.9 6.4 76.9 17.8 77 17.9l1.7 1.4 1.6-7.8C76.1 8.6 61.3-.2 43.8 0 22.1.2-.2 14.6 0 38.3.1 47.1 3.5 55 9.9 61.2c4.4 4.3 10.1 7.6 16.6 9.9 1.1-1.7 2.3-3.6 3.4-5.7-6.1-1.9-11.5-5-15.5-8.9z"/>
    <path d="M88.4 41.2l1.2-4.2H54.4v6.5h26.2C76.4 53.1 67.5 62.3 56 66c1.1 1.9 2.4 3.8 3.8 5.6 14.6-5.3 24.9-18 28.6-30.4z"/>
  </g>
  <path fill="#C4CEE1" d="M90.9 12H83l-.5 2.4c-3 15.7-13.5 38.3-30.9 42.8.8 1.8 1.7 3.6 2.6 5.4C72.7 57 84 34.7 87.8 17.9h.1v43.9h6V12h-3z"/>
  <path d="M79.8 77.6c-.9-.2-1.3 1.6.1 1.8.6.3.4 1.3-.8 2.3s-7 2.8-11.5-1-9.2-8.9-12.3-14.4c-2.4-4.2-5.2-9.8-6.8-14.7 6.5.2 5.8-2.8 5.8-2.8-1.1 1.9-3.6 2.3-6 2.1-.4-1.3-.7-2.5-.9-3.6-.8-5.3-.7-10.6-.4-11.7 0 0-.1.1-.4.3v-.2s-7.2 4.6-15.4-.5-6.3-23.6 8-23.5c2.8-.1 7.1.8 8.8 3.5 0 0 .5-.9 1.7-1.3 0 0-1.2.1-2-.3s-2-2.6-9-2.6-14.4 5-14.4 14.2c0 9 9.8 16 21.1 11.8-1.8 1.7-4.7 5.3-7.4 12-1.5-.1-2.8.2-2.8 1.4 0 1.4.8 1.8 1.6 1.8-4.1 10.3-8.2 18-12.5 23-3.9 4.6-7.9 8.7-15.8 7.7-2.8-.4-6.9-4.4-3.5-8.8.4-.5.7 1.1 2.2.3s-1-2.9-2.8-.8S.7 83.3 11.9 84s19.7-16.7 21.9-21.2c1.1-2.2 3.3-7.7 5.6-13.1 2.2.4 5.1 1.3 6.7 1.7.3 0 .5.1.8.1 1.4 5.9 4.3 12.8 9 19.2 11.2 15 17 13.9 22.6 12.5 1.8-.9 4.6-5 1.3-5.6zM36.2 50.5c0-.7.6-.9 1.6-.9-.1.2-.2.4-.2.6-.2.5-.4 1.1-.6 1.6-.6-.3-.8-.7-.8-1.3zm6.5-.7c-.5-.1-1.7-.5-3.1-.7 2.4-5.5 4.8-10.6 6.2-11.7 0 0-.7 4.9.6 11.7l.3 1.5c-1.8-.1-3.5-.6-4-.8zm80.6-34.9c-1.3-1.5-3.3-2.3-5.3-2.3-4 0-6.8 2.6-6.8 7.4 0 4.7 2.4 7.6 7.1 7.6 1.3 0 2.6-.2 3.7-.8v-6.1c.3 0 .7.1 1 .1.3 0 .7 0 1-.1v6.7c-2.1.7-4.2 1.1-6.4 1.1-6 0-8.8-3.6-8.8-8.4 0-5.5 4-8.4 9.3-8.4 3.5 0 5.5 1 6 1.4-.2.6-.4 1.2-.5 1.8h-.3zm7 4.2h3.7c.7 0 1.4-.1 2.1-.1 0 .2-.1.4-.1.6 0 .2 0 .4.1.7-.7 0-1.4-.1-2.1-.1h-3.7v6.9c1.4 0 2.9 0 4.3-.1.7 0 1.4-.1 2.2-.2 0 .3-.1.5-.1.7 0 .2 0 .5.1.7h-8.6V12h8.4c0 .3-.1.5-.1.7 0 .2 0 .5.1.7l-2.1-.3h-4.2v6zm24.5.9c.2 2.6-1.6 7.8-6.6 7.8-3.5 0-6.5-2.5-6.5-7.3s2.5-8 6.7-8c1.9 0 3.7.8 4.9 2.3 1.3 1.6 1.5 3.2 1.5 5.2zm-6.7 8.5c5.3 0 9-3.4 9-8.7 0-5.7-4.5-8.1-9-8.1-4.9 0-8.8 3.3-8.8 8.4.1 5.1 3.6 8.4 8.8 8.4zm14.7-15.6c1 0 2.6-.1 3.5 0 1.8.3 2.6 1.4 2.6 3 0 1.9-1.3 3-3 3.4-1.2.2-2.7.1-3.1.1v-6.5zm-2.1 15.3c.3 0 .7-.1 1-.1.3 0 .7 0 1 .1v-7.9h.9l1.9 2.2 2.8 3.6c.5.7 1 1.3 1.5 2.1.4 0 .9-.1 1.4-.1s.9 0 1.4.1l-.5-.6-1.1-1.3-4.9-6.2c2.4-.4 4.9-1.8 4.9-4.5 0-2.4-1.6-3.6-5.3-3.6h-5v16.2zm28.7-13.3c-1.3-1.5-3.3-2.3-5.3-2.3-4 0-6.8 2.6-6.8 7.4 0 4.7 2.4 7.6 7.1 7.6 1.3 0 2.6-.2 3.7-.8v-6.1c.3 0 .7.1 1 .1.3 0 .7 0 1-.1v6.7c-2.1.7-4.2 1.1-6.4 1.1-6 0-8.8-3.6-8.8-8.4 0-5.5 4-8.4 9.3-8.4 3.5 0 5.5 1 6 1.4-.2.6-.4 1.2-.5 1.8h-.3zm3.8 7.3h5.9v1.5h-5.9v-1.5zm17.5-1.3h-5.2l2.6-6.1 2.6 6.1zm-1.8-9.2h-.5L201 28.2c.3 0 .5-.1.8-.1.3 0 .5 0 .9.1.7-2.2 1.5-4.3 2.3-6.4h6c.9 2.2 1.8 4.4 2.5 6.4.4 0 .8-.1 1.3-.1.4 0 .8 0 1.2.1l-7.1-16.5zm12.2 9.4c0 4.2 1.2 6.3 5.3 6.3 3.8 0 5.1-2.7 5.1-6.6V12c.2 0 .4.1.7.1.2 0 .4 0 .7-.1v9.4c0 4.7-2.8 7.1-6.9 7.1-2.4 0-3.9-.5-5.2-1.7-1.5-1.4-1.7-3.5-1.7-5.4V12c.3 0 .7.1 1 .1.3 0 .7 0 1-.1v9.1zm30.5-6.2c-1.3-1.5-3.3-2.3-5.3-2.3-4 0-6.8 2.6-6.8 7.4 0 4.7 2.4 7.6 7.1 7.6 1.3 0 2.6-.2 3.7-.8v-6.1c.3 0 .7.1 1 .1.3 0 .7 0 1-.1v6.7c-2.1.7-4.2 1.1-6.4 1.1-6 0-8.8-3.6-8.8-8.4 0-5.5 4-8.4 9.3-8.4 3.5 0 5.5 1 6 1.4-.2.6-.4 1.2-.5 1.8h-.3zm7.1 6.2c0 4.2 1.2 6.3 5.3 6.3 3.8 0 5.1-2.7 5.1-6.6V12c.2 0 .4.1.7.1.2 0 .4 0 .7-.1v9.4c0 4.7-2.8 7.1-6.9 7.1-2.4 0-3.9-.5-5.2-1.7-1.5-1.4-1.7-3.5-1.7-5.4V12c.3 0 .7.1 1 .1.3 0 .7 0 1-.1v9.1zM275 25c.9 1.5 2 2.5 3.8 2.5 1.9 0 3.3-1.6 3.3-3.5 0-4.4-7.4-2.5-7.4-7.8 0-3.1 2.4-4.5 5.3-4.5 1.1 0 2.5.4 3.4 1.1-.3.6-.5 1.3-.6 1.9h-.2c-.5-1.3-1.5-2.1-2.9-2.1-1.6 0-3 1.1-3 2.8 0 4.4 7.5 2.6 7.5 7.6 0 3.4-2.6 5.4-5.9 5.4-1.2 0-3.1-.5-3.9-1.4.2-.7.4-1.4.5-2.1h.1zm18.3 3.3h-2V13.2c-2.4 0-3.8.1-5.2.3 0-.2.1-.5.1-.7 0-.2 0-.5-.1-.7h12.2c0 .3-.1.5-.1.7 0 .2 0 .5.1.7-1.2-.1-2.8-.3-5-.3v15.1zm4.7-6.1h5.9v1.5H298v-1.5zm11.7-1.1c0 4.2 1.2 6.3 5.3 6.3 3.8 0 5.1-2.7 5.1-6.6V12c.2 0 .4.1.7.1.2 0 .4 0 .7-.1v9.4c0 4.7-2.8 7.1-6.9 7.1-2.4 0-3.9-.5-5.2-1.7-1.5-1.4-1.7-3.5-1.7-5.4V12c.3 0 .7.1 1 .1.3 0 .7 0 1-.1v9.1zm30.6 7.1h-.7c-.3-.3-.7-.9-1.2-1.4l-10.2-11.3h-.2v12.8c-.2 0-.5-.1-.7-.1-.2 0-.5 0-.7.1V12h.9l11.3 12.2h.2V12c.2 0 .4.1.7.1.2 0 .4 0 .7-.1v16.2zm5-16.2c.3 0 .7.1 1 .1.3 0 .7 0 1-.1v16.2c-.4 0-.7-.1-1-.1-.4 0-.7 0-1 .1V12zm17 4.4l1.4-4 .2-.4c.3 0 .6.1.9.1.3 0 .5 0 .9-.1-.8 1.4-6 13.6-6.9 16.2-.2 0-.3-.1-.5-.1s-.3 0-.5.1c-2.7-5.6-6.2-14.2-7.2-16.2.4 0 .8.1 1.1.1.4 0 .7 0 1.2-.1.3.7.6 1.5.9 2.3l1.6 4.1 2.9 7.2h.2c.5-1 1-1.9 1.3-2.9l2.5-6.3zm8.1 2.7h3.7c.7 0 1.4-.1 2.1-.1 0 .2-.1.4-.1.6 0 .2 0 .4.1.7-.7 0-1.4-.1-2.1-.1h-3.7v6.9c1.4 0 2.9 0 4.3-.1.7 0 1.4-.1 2.2-.2 0 .3-.1.5-.1.7 0 .2 0 .5.1.7h-8.6V12h8.4c0 .3-.1.5-.1.7 0 .2 0 .5.1.7l-2.1-.3h-4.2v6zm12.3-6.2c1 0 2.6-.1 3.5 0 1.8.3 2.6 1.4 2.6 3 0 1.9-1.3 3-3 3.4-1.2.2-2.7.1-3.1.1v-6.5zm-2.1 15.3c.3 0 .7-.1 1-.1.3 0 .7 0 1 .1v-7.9h.9l1.9 2.2 2.8 3.6c.5.7 1 1.3 1.5 2.1.4 0 .9-.1 1.4-.1.4 0 .9 0 1.4.1l-.4-.6-1.1-1.3-4.9-6.2c2.4-.4 4.9-1.8 4.9-4.5 0-2.4-1.6-3.6-5.3-3.6h-5v16.2zm14.5-3.2c.9 1.5 2 2.5 3.8 2.5 1.9 0 3.3-1.6 3.3-3.5 0-4.4-7.4-2.5-7.4-7.8 0-3.1 2.4-4.5 5.3-4.5 1.1 0 2.5.4 3.4 1.1-.3.6-.5 1.3-.6 1.9h-.2c-.5-1.3-1.5-2.1-2.9-2.1-1.6 0-3 1.1-3 2.8 0 4.4 7.5 2.6 7.5 7.6 0 3.4-2.6 5.4-5.9 5.4-1.2 0-3.1-.5-3.9-1.4.2-.7.4-1.4.5-2.1h.1zm12.7-13c.3 0 .7.1 1 .1.3 0 .7 0 1-.1v16.2c-.4 0-.7-.1-1-.1-.4 0-.7 0-1 .1V12zm12.5 16.3h-2V13.2c-2.4 0-3.8.1-5.2.3 0-.2.1-.5.1-.7 0-.2 0-.5-.1-.7h12.2v1.4c-1.2-.1-2.8-.3-5-.3v15.1zm16-7.4H431l2.6-6.1 2.7 6.1zm.1-10.7c.6 0 1.1-.5 1.1-1.1 0-.6-.5-1.1-1.1-1.1-.6 0-1.1.5-1.1 1.1 0 .6.5 1.1 1.1 1.1zm-4.7 0c.6 0 1.1-.5 1.1-1.1 0-.6-.5-1.1-1.1-1.1-.6 0-1.1.5-1.1 1.1 0 .6.5 1.1 1.1 1.1zm2.8 1.5h-.5l-7.4 16.5c.3 0 .5-.1.8-.1.3 0 .5 0 .9.1.7-2.2 1.5-4.3 2.3-6.4h6c.9 2.2 1.8 4.4 2.5 6.4.4 0 .8-.1 1.3-.1.4 0 .8 0 1.2.1l-7.1-16.5zm15.6 16.6h-2V13.2c-2.4 0-3.8.1-5.2.3 0-.2.1-.5.1-.7 0-.2 0-.5-.1-.7h12.2c0 .3-.1.5-.1.7 0 .2 0 .5.1.7-1.2-.1-2.8-.3-5-.3v15.1zm-326.8 19C122 45.8 120 45 118 45c-4 0-6.8 2.6-6.8 7.4 0 4.7 2.4 7.6 7.1 7.6 1.3 0 2.6-.2 3.7-.8v-6.1c.3 0 .7.1 1 .1.3 0 .7 0 1-.1v6.7c-2.1.7-4.2 1.1-6.4 1.1-6 0-8.8-3.6-8.8-8.4 0-5.5 4-8.4 9.3-8.4 3.5 0 5.5 1 6 1.4-.2.6-.4 1.2-.5 1.8h-.3zm19.6 5.1c.2 2.6-1.6 7.8-6.6 7.8-3.5 0-6.5-2.5-6.5-7.3s2.5-8 6.7-8c1.9 0 3.7.8 4.9 2.3 1.2 1.6 1.5 3.2 1.5 5.2zm-4.3-9.8c.6 0 1.1-.5 1.1-1.1 0-.6-.5-1.1-1.1-1.1-.6 0-1.1.5-1.1 1.1 0 .6.5 1.1 1.1 1.1zm-4.6 0c.6 0 1.1-.5 1.1-1.1 0-.6-.5-1.1-1.1-1.1-.6 0-1.1.5-1.1 1.1 0 .6.5 1.1 1.1 1.1zm2.2 18.3c5.3 0 9-3.4 9-8.7 0-5.7-4.5-8.1-9-8.1-4.9 0-8.8 3.3-8.8 8.5 0 5 3.5 8.3 8.8 8.3zm18.4-.2h-2V45.6c-2.4 0-3.8.1-5.2.3 0-.2.1-.5.1-.7 0-.2 0-.5-.1-.7h12.2c0 .3-.1.5-.1.7 0 .2 0 .5.1.7-1.2-.1-2.8-.3-5-.3v15.1zm13.9 0h-2V45.6c-2.4 0-3.8.1-5.2.3 0-.2.1-.5.1-.7 0-.2 0-.5-.1-.7h12.2c0 .3-.1.5-.1.7 0 .2 0 .5.1.7-1.2-.1-2.8-.3-5-.3v15.1zm8.3-16.3c.3 0 .7.1 1 .1.3 0 .7 0 1-.1v16.2c-.4 0-.7-.1-1-.1-.4 0-.7 0-1 .1V44.4zM198 60.6h-.7c-.3-.3-.7-.9-1.2-1.4l-10.2-11.3h-.2v12.8c-.2 0-.5-.1-.7-.1-.2 0-.5 0-.7.1V44.4h.9l11.3 12.2h.2V44.4c.2 0 .4.1.7.1.2 0 .4 0 .7-.1v16.2zm19-13.3c-1.3-1.5-3.3-2.3-5.3-2.3-4 0-6.8 2.6-6.8 7.4 0 4.7 2.4 7.6 7.1 7.6 1.3 0 2.6-.2 3.7-.8v-6.1c.3 0 .7.1 1 .1.3 0 .7 0 1-.1v6.7c-2.1.7-4.2 1.1-6.4 1.1-6 0-8.8-3.6-8.8-8.4 0-5.5 4-8.4 9.3-8.4 3.5 0 5.5 1 6 1.4-.2.6-.4 1.2-.5 1.8h-.3zm7.3 4.2h3.7c.7 0 1.4-.1 2.1-.1 0 .2-.1.4-.1.6 0 .2 0 .4.1.7-.7 0-1.4-.1-2.1-.1h-3.7v6.9c1.4 0 2.9 0 4.3-.1.7 0 1.4-.1 2.2-.2 0 .3-.1.5-.1.7 0 .2 0 .5.1.7h-8.6V44.4h8.4c0 .3-.1.5-.1.7 0 .2 0 .5.1.7l-2.1-.3h-4.2v6zm24.5 9.1h-.7c-.3-.3-.7-.9-1.2-1.4l-10.2-11.3h-.2v12.8c-.2 0-.5-.1-.7-.1-.2 0-.5 0-.7.1V44.4h.9l11.3 12.2h.2V44.4c.2 0 .4.1.7.1.2 0 .4 0 .7-.1v16.2z"/>
</svg>
